<?xml version="1.0" encoding="utf-8"?>
<!-- Generator: Adobe Illustrator 16.0.4, SVG Export Plug-In . SVG Version: 6.00 Build 0)  -->
<!DOCTYPE svg PUBLIC "-//W3C//DTD SVG 1.1//EN" "http://www.w3.org/Graphics/SVG/1.1/DTD/svg11.dtd">
<svg version="1.1" id="Layer_1" xmlns="http://www.w3.org/2000/svg" xmlns:xlink="http://www.w3.org/1999/xlink" x="0px" y="0px"
	 width="792px" height="792px" viewBox="0 0 792 792" enable-background="new 0 0 792 792" xml:space="preserve">
<g>
	<path fill="none" stroke="#000000" stroke-width="12.032" stroke-miterlimit="10" d="M232.574,192.829
		c56.544-26.022,121.168-13.15,163.427,27.459c42.259-40.609,106.89-53.481,163.416-27.459
		c73.394,33.783,105.314,96.561,71.313,169.477c-34.011,72.917-233.16,177.561-233.16,177.561h-3.144
		c0,0-199.153-104.644-233.154-177.561C127.265,289.39,159.187,226.612,232.574,192.829z"/>
	<g>
		<path d="M456.4,330.427c0,19.729,15.986,35.719,35.729,35.719c19.723,0,35.715-15.99,35.715-35.719
			c0-19.729-15.992-35.72-35.715-35.72C472.387,294.707,456.4,310.697,456.4,330.427z"/>
		<path d="M264.157,330.427c0,19.729,15.983,35.719,35.714,35.719c19.734,0,35.726-15.99,35.726-35.719
			c0-19.729-15.992-35.72-35.726-35.72C280.14,294.707,264.157,310.697,264.157,330.427z"/>
		<g>
			<path fill="none" stroke="#000000" stroke-width="12.032" stroke-miterlimit="10" d="M412.121,369.839
				c2.094-5.576,0.36-13.584-3.852-17.795l-4.62-4.62c-4.212-4.211-11.102-4.21-15.312,0.002l-4.612,4.615
				c-4.21,4.213-5.943,12.222-3.852,17.799l12.315,32.833c2.092,5.576,5.515,5.576,7.609,0.001L412.121,369.839z"/>
		</g>
	</g>
	<g>
		<path fill="none" stroke="#000000" stroke-width="12.032" stroke-miterlimit="10" d="M334.85,626.105
			c-11.717-23.367-11.673-46.758,0.062-70.176c-0.693-2.438,12.769-1.085,31.504,8.516c17.885,8.445,41.042,25.14,40.118,26.646
			c0.91,1.51-22.258,18.2-40.154,26.604C347.636,627.261,334.163,628.539,334.85,626.105z"/>
		<path fill="none" stroke="#000000" stroke-width="12.032" stroke-miterlimit="10" d="M457.144,626.105
			c11.72-23.369,11.685-46.758-0.05-70.168c0.693-2.439-12.77-1.093-31.506,8.508c-17.885,8.444-41.044,25.14-40.117,26.646
			c-0.912,1.51,22.253,18.2,40.146,26.604C444.36,627.261,457.828,628.539,457.144,626.105z"/>
		<path stroke="#000000" stroke-width="12.032" stroke-miterlimit="10" d="M379.641,598.387c0,8.271,7.326,14.974,16.362,14.974l0,0
			c9.036,0,16.361-6.703,16.361-14.974v-14.14c0-8.268-7.325-14.968-16.361-14.968l0,0c-9.036,0-16.362,6.7-16.362,14.968V598.387z"
			/>
	</g>
	<g>
		<g>
			<defs>
				<path id="SVGID_1_" d="M157.47,138.45C84.091,204.025,37.902,299.39,37.902,405.542c0,197.77,160.328,358.1,358.104,358.1
					c197.761,0,358.092-160.33,358.092-358.1c0-106.04-46.094-201.315-119.336-266.884"/>
			</defs>
			<defs>
				<path id="SVGID_2_" d="M549.475,81.909c-46.515-22.098-98.548-34.462-153.469-34.462c-57.21,0-111.29,13.416-159.259,37.273"/>
			</defs>
			<clipPath id="SVGID_3_">
				<use xlink:href="#SVGID_1_"  overflow="visible"/>
			</clipPath>
			<clipPath id="SVGID_4_" clip-path="url(#SVGID_3_)">
				<use xlink:href="#SVGID_2_"  overflow="visible"/>
			</clipPath>
			<path clip-path="url(#SVGID_4_)" fill="none" d="M37.902,405.542c0,197.77,160.328,358.1,358.104,358.1
				c197.761,0,358.092-160.33,358.092-358.1c0-197.771-160.331-358.095-358.092-358.095
				C198.23,47.447,37.902,207.771,37.902,405.542z"/>
			
				<path clip-path="url(#SVGID_4_)" fill="none" stroke="#000000" stroke-width="12.032" stroke-linecap="round" stroke-linejoin="round" stroke-miterlimit="10" d="
				M328.23,598.631c-76.195,26.837-130.799,99.456-130.799,184.833c0,108.202,87.702,195.914,195.904,195.914
				c108.202,0,195.916-87.712,195.916-195.914c0-82.209-50.636-152.59-122.42-181.659"/>
			
				<use xlink:href="#SVGID_1_"  overflow="visible" fill="none" stroke="#000000" stroke-width="12.032" stroke-linecap="round" stroke-miterlimit="10"/>
			
				<use xlink:href="#SVGID_2_"  overflow="visible" fill="none" stroke="#000000" stroke-width="12.032" stroke-linecap="round" stroke-miterlimit="10"/>
		</g>
		
			<path fill="none" stroke="#000000" stroke-width="12.032" stroke-linecap="round" stroke-linejoin="round" stroke-miterlimit="10" d="
			M546.674,80.263c34.559,18.753,80.23-22.444,81.307-51.901c5.556,23.064,12.256,52-6.374,70.976
			c16.509-8.182,27.248-19.908,35.235-36.05c3.942,29.197-6.446,56.274-22.08,75.371"/>
		
			<path fill="none" stroke="#000000" stroke-width="12.032" stroke-linecap="round" stroke-linejoin="round" stroke-miterlimit="10" d="
			M245.432,80.261c-34.558,18.753-80.23-22.444-81.307-51.902c-5.555,23.065-12.255,52.001,6.374,70.976
			c-16.509-8.181-27.248-19.907-35.235-36.05c-3.942,29.198,6.446,56.274,22.08,75.371"/>
		<path fill="none" stroke="#000000" stroke-width="12.032" stroke-linecap="round" stroke-miterlimit="10" d="M695.134,432.033
			c-47.888,30.925-67.295,158.402-26.405,202.449"/>
		<path fill="none" stroke="#000000" stroke-width="12.032" stroke-linecap="round" stroke-miterlimit="10" d="M96.191,432.033
			c47.887,30.925,67.295,158.402,26.408,202.449"/>
	</g>
</g>
</svg>
